<svg width="17" height="16" viewBox="0 0 17 16" fill="none" xmlns="http://www.w3.org/2000/svg">
<path d="M13.1491 15.1973L13.1591 15.1874L15.4119 12.9515C15.4121 12.9513 15.4123 12.9511 15.4125 12.9509C15.4937 12.8695 15.5171 12.8001 15.509 12.71C15.4935 12.6509 15.4514 12.5778 15.3197 12.4953L12.1712 10.6355H12.1524L12.0336 10.5642C12.0261 10.5597 11.9738 10.5338 11.8333 10.5338C11.69 10.5338 11.5738 10.576 11.4646 10.6691L10.512 11.6385L10.5089 11.6416C10.4061 11.7444 10.284 11.7948 10.2035 11.8216L10.2032 11.8217C10.1523 11.8387 10.0468 11.8728 9.93496 11.8728H9.88541L9.83681 11.8631L9.62535 11.8207C9.62524 11.8207 9.62512 11.8207 9.62501 11.8207C9.41248 11.7782 9.15792 11.6691 8.88562 11.53C8.58667 11.3774 8.23205 11.1483 7.82706 10.8533L7.82699 10.8532C7.40216 10.5437 6.93 10.1201 6.41195 9.5908C5.88293 9.07301 5.46165 8.60325 5.15727 8.1832C4.86797 7.78397 4.64216 7.42989 4.48947 7.12521C4.31845 6.79486 4.19578 6.47757 4.13877 6.17829L4.12994 6.13192V6.08473C4.12994 5.97521 4.15575 5.8753 4.18102 5.7995C4.20798 5.71863 4.25843 5.59659 4.36113 5.49389L5.19164 4.66338C5.26601 4.58901 5.31766 4.49693 5.34405 4.37156C5.36583 4.26811 5.35139 4.19509 5.31279 4.12648L5.3061 4.11458L5.30626 4.11449L3.50338 0.694076C3.45755 0.625525 3.4054 0.571001 3.34689 0.527119C3.32408 0.510013 3.3004 0.5 3.25706 0.5C3.20016 0.5 3.14296 0.516121 3.06824 0.590841L0.814005 2.84507L0.804707 2.85437L0.794933 2.86317C0.738679 2.9138 0.678903 2.99055 0.622592 3.1072C0.567546 3.22122 0.534652 3.32498 0.518543 3.41939C0.516081 3.48312 0.510093 3.59491 0.502055 3.73959C0.493676 3.89041 0.509959 4.12923 0.564439 4.47245C0.615602 4.79477 0.715225 5.19224 0.868612 5.66884C1.01582 6.12622 1.2404 6.64743 1.54753 7.23422L1.54754 7.23423C1.84969 7.81155 2.25345 8.4485 2.76259 9.14583C3.26297 9.83111 3.89945 10.5565 4.67588 11.3218L4.68046 11.3264L4.68043 11.3264C5.6578 12.3149 6.56843 13.0808 7.41204 13.6323L7.41205 13.6323C8.27687 14.1977 9.03685 14.6129 9.69438 14.8855L9.69439 14.8855C10.37 15.1656 10.9162 15.3305 11.3411 15.3955C11.8195 15.4687 12.1344 15.5 12.308 15.5C12.3898 15.5 12.445 15.4973 12.4785 15.494L13.1491 15.1973ZM13.1491 15.1973L13.1396 15.2078C13.0889 15.2641 13.0121 15.3239 12.8958 15.38L12.8956 15.3801C12.7795 15.4362 12.674 15.4693 12.5783 15.485C12.5457 15.4872 12.5104 15.4908 12.4835 15.4935L12.4787 15.4939L13.1491 15.1973Z" stroke="white"/>
</svg>
